<svg width="22" height="21" viewBox="0 0 22 21"  xmlns="http://www.w3.org/2000/svg">
<path d="M10.3348 1.18931C10.5756 0.589844 11.4242 0.589842 11.6649 1.18931L13.7978 6.50059C13.9003 6.75587 14.1399 6.92994 14.4143 6.94855L20.1248 7.33574C20.7693 7.37944 21.0315 8.18654 20.5358 8.60074L16.1435 12.2705C15.9324 12.4469 15.8409 12.7285 15.908 12.9953L17.3044 18.5459C17.462 19.1723 16.7755 19.6712 16.2283 19.3277L11.3809 16.2844C11.1479 16.1382 10.8518 16.1382 10.6188 16.2844L5.7714 19.3277C5.22429 19.6712 4.53773 19.1724 4.69533 18.5459L6.0917 12.9953C6.15882 12.7285 6.0673 12.4469 5.8562 12.2705L1.46396 8.60074C0.968225 8.18654 1.23047 7.37944 1.87499 7.33574L7.5854 6.94855C7.85986 6.92994 8.09945 6.75587 8.20196 6.50059L10.3348 1.18931Z" stroke="#5661CB" stroke-width="1.43333" stroke-linecap="square"/>
</svg>
